HIERARCHY
ROOT Hips
{
	OFFSET 0.000000 0.000000 0.000000
	CHANNELS 6 Xposition Yposition Zposition Zrotation Yrotation Xrotation 
	JOINT LowerBack
	{
		OFFSET 0.000000 0.000000 0.000000
		CHANNELS 3 Zrotation Yrotation Xrotation
		JOINT Spine
		{
			OFFSET 0.028270 2.035590 -0.193380
			CHANNELS 3 Zrotation Yrotation Xrotation
			JOINT Spine1
			{
				OFFSET 0.056720 2.048850 -0.042750
				CHANNELS 3 Zrotation Yrotation Xrotation
				JOINT Neck
				{
					OFFSET 0.000000 0.000000 0.000000
					CHANNELS 3 Zrotation Yrotation Xrotation
					JOINT Neck1
					{
						OFFSET -0.054170 1.746240 0.172020
						CHANNELS 3 Zrotation Yrotation Xrotation
						JOINT Head
						{
							OFFSET 0.104070 1.761360 -0.123970
							CHANNELS 3 Zrotation Yrotation Xrotation
							End Site
							{
								OFFSET 0.000000 0.000000 0.000000
							}
						}
					}
				}
				JOINT LeftShoulder
				{
					OFFSET 0.000000 0.000000 0.000000
					CHANNELS 3 Zrotation Yrotation Xrotation
					JOINT LeftArm
					{
						OFFSET 3.362410 1.200890 -0.311210
						CHANNELS 3 Zrotation Yrotation Xrotation
						JOINT LeftForeArm
						{
							OFFSET 4.983000 -0.000000 -0.000000
							CHANNELS 3 Zrotation Yrotation Xrotation
							JOINT LeftHand
							{
								OFFSET 3.483560 -0.000000 -0.000000
								CHANNELS 3 Zrotation Yrotation Xrotation
								JOINT LeftFingerBase
								{
									OFFSET 0.000000 0.000000 0.000000
									CHANNELS 3 Zrotation Yrotation Xrotation
									JOINT LeftHandIndex1
									{
										OFFSET 0.715260 -0.000000 -0.000000
										CHANNELS 3 Zrotation Yrotation Xrotation
										End Site
										{
											OFFSET 0.000000 0.000000 0.000000
										}
									}
								}
								JOINT LThumb
								{
									OFFSET 0.000000 0.000000 0.000000
									CHANNELS 3 Zrotation Yrotation Xrotation
									End Site
									{
										OFFSET 0.000000 0.000000 0.000000
									}
								}
							}
						}
					}
				}
				JOINT RightShoulder
				{
					OFFSET 0.000000 0.000000 0.000000
					CHANNELS 3 Zrotation Yrotation Xrotation
					JOINT RightArm
					{
						OFFSET -3.136600 1.374050 -0.404650
						CHANNELS 3 Zrotation Yrotation Xrotation
						JOINT RightForeArm
						{
							OFFSET -5.241900 -0.000000 -0.000000
							CHANNELS 3 Zrotation Yrotation Xrotation
							JOINT RightHand
							{
								OFFSET -3.444170 -0.000000 -0.000000
								CHANNELS 3 Zrotation Yrotation Xrotation
								JOINT RightFingerBase
								{
									OFFSET 0.000000 0.000000 0.000000
									CHANNELS 3 Zrotation Yrotation Xrotation
									JOINT RightHandIndex1
									{
										OFFSET -0.622530 -0.000000 -0.000000
										CHANNELS 3 Zrotation Yrotation Xrotation
										End Site
										{
											OFFSET 0.000000 0.000000 0.000000
										}
									}
								}
								JOINT RThumb
								{
									OFFSET 0.000000 0.000000 0.000000
									CHANNELS 3 Zrotation Yrotation Xrotation
									End Site
									{
										OFFSET 0.000000 0.000000 0.000000
									}
								}
							}
						}
					}
				}
			}
		}
	}
}
}
MOTION
Frames: 14
Frame Time: 0.008333
3.425921 17.893781 0.033535 145.856495 88.527260 170.339579 -5.993917 -0.793181 -3.688034 -0.112320 -0.240737 -4.607573 2.556981 -0.306933 -4.409573 -0.263461 -2.684574 -8.620532 0.482225 0.064710 -0.374322 0.000000 0.000000 0.000000 11.494870 7.827358 -5.424396 -36.260864 -87.098514 -43.637790 6.364131 -40.619482 -0.251189 14.118123 -12.634529 -1.730240 -0.097641 1.127930 -0.000000 0.000000 0.000000 0.000000 0.000000 0.000000 0.000000 -10.497537 4.546745 6.236630 6.892059 47.475327 17.498400 0.725311 70.523929 0.053952 17.060165 -5.383391 -0.801812 -0.232098 -0.109653 0.000000 0.000000 0.000000 0.000000 0.000000 0.000000 0.000000 
3.696280 17.858023 0.016043 150.185222 88.970722 174.430889 -5.878550 -0.700413 -3.427777 -0.090578 -0.154327 -4.583350 2.556788 -0.208307 -4.489817 -0.029314 -2.977339 -8.871197 0.531072 0.074092 -0.455982 0.000000 0.000000 0.000000 10.776136 8.041449 -5.196614 -40.152937 -87.418324 -39.368289 6.448776 -41.087294 -0.242607 13.129003 -12.194754 -1.551737 -0.053757 1.125713 -0.000000 0.000000 0.000000 0.000000 0.000000 0.000000 0.000000 -10.429492 4.077640 6.267911 5.131506 47.646350 15.819090 0.701318 70.860775 0.057233 17.518026 -5.451425 -0.833897 -0.243330 -0.113295 0.000000 0.000000 0.000000 0.000000 0.000000 0.000000 0.000000 
3.964613 17.809510 -0.002571 155.424968 89.321241 179.408813 -5.860424 -0.584847 -3.098793 -0.097688 -0.037710 -4.536345 2.521993 -0.079939 -4.529066 0.323005 -3.247128 -9.226591 0.590660 0.086467 -0.567884 0.000000 0.000000 0.000000 9.964579 8.422689 -4.647460 -47.556839 -88.548632 -32.073413 6.640784 -41.375379 -0.234483 12.176962 -11.529194 -1.362144 -0.012720 1.127530 -0.000000 0.000000 0.000000 0.000000 0.000000 0.000000 0.000000 -10.191964 3.370711 6.193458 3.195536 47.813177 13.905993 0.677743 71.065397 0.059866 17.789199 -5.382548 -0.835381 -0.251847 -0.118488 0.000000 0.000000 0.000000 0.000000 0.000000 0.000000 0.000000 
4.231235 17.748503 -0.021536 161.761733 89.455768 -174.560584 -5.875916 -0.359564 -2.854327 -0.213488 0.178395 -4.303655 2.146974 0.114071 -3.828337 0.948161 -3.492170 -10.065772 0.710673 0.114030 -0.828472 0.000000 0.000000 0.000000 8.548752 9.280201 -2.183772 114.838069 -86.857140 165.200451 6.607036 -41.205894 -0.226435 11.400855 -10.679363 -1.187973 0.006372 1.139253 -0.000000 0.000000 0.000000 0.000000 0.000000 0.000000 0.000000 -9.666895 2.095210 5.620763 1.105327 47.873008 11.555085 0.594324 71.136740 0.062488 17.877019 -5.184143 -0.807471 -0.266939 -0.124793 0.000000 0.000000 0.000000 0.000000 0.000000 0.000000 0.000000 
4.496443 17.675196 -0.039989 169.552054 89.653002 -167.507244 -4.936137 -0.397355 -3.464034 -0.373598 0.016417 -3.795034 0.803600 -0.130660 -1.449597 1.252801 -3.736515 -10.647331 0.705333 0.128143 -1.035533 0.000000 0.000000 0.000000 6.986872 8.053306 2.310909 69.877029 -79.719630 -142.853596 4.096791 -42.961585 -0.195651 10.933768 -9.824027 -1.047948 -0.013602 1.050198 -0.000000 0.000000 0.000000 0.000000 0.000000 0.000000 0.000000 -9.348491 2.376928 4.767034 -1.216119 48.309741 8.468030 0.343712 70.378690 0.075556 17.787023 -4.910669 -0.756129 -0.311628 -0.159669 0.000000 0.000000 0.000000 0.000000 0.000000 0.000000 0.000000 
4.760363 17.589865 -0.057248 178.349450 89.982463 -159.063421 -4.588803 -0.844591 -3.435540 -0.310606 -0.459970 -4.011725 0.761705 -0.583591 -2.409647 1.103600 -4.004442 -9.458350 0.511859 0.089485 -0.692593 0.000000 0.000000 0.000000 7.608556 5.533955 -0.655115 21.963982 -79.568588 -91.721262 3.485132 -45.805639 -0.180338 10.964187 -8.955684 -0.955423 0.000540 0.953240 -0.000000 0.000000 0.000000 0.000000 0.000000 0.000000 0.000000 -9.231155 3.564886 5.732719 -3.664807 49.124271 6.239751 0.404757 69.425474 0.082953 17.631789 -4.570260 -0.690294 -0.306507 -0.192078 0.000000 0.000000 0.000000 0.000000 0.000000 0.000000 0.000000 
5.023186 17.492722 -0.072958 -172.121974 89.961078 -149.689606 -4.591034 -1.109115 -3.220385 -0.274957 -0.720612 -4.126423 0.817934 -0.824327 -3.080173 1.412197 -4.294712 -9.116625 0.441000 0.076865 -0.591310 0.000000 0.000000 0.000000 7.822835 4.646743 -2.029339 5.033835 -78.539550 -74.269869 3.694392 -46.831679 -0.184323 11.498427 -8.073263 -0.910845 -0.005624 0.929744 -0.000000 0.000000 0.000000 0.000000 0.000000 0.000000 0.000000 -8.767078 3.410668 6.091476 -6.164116 49.789550 3.728258 0.460537 68.614636 0.085158 17.401568 -4.200164 -0.620520 -0.298517 -0.209940 0.000000 0.000000 0.000000 0.000000 0.000000 0.000000 0.000000 
5.284933 17.384225 -0.086898 -162.971754 89.834586 -140.657795 -4.515018 -1.335960 -3.114633 -0.266652 -0.953894 -4.177857 0.700659 -1.046838 -3.382375 1.852590 -4.598601 -9.010674 0.403452 0.071832 -0.560526 0.000000 0.000000 0.000000 7.869514 3.995439 -2.457755 -1.298319 -77.130864 -66.861092 3.758743 -47.598385 -0.194844 12.534658 -7.304565 -0.908650 -0.032260 0.915762 -0.000000 0.000000 0.000000 0.000000 0.000000 0.000000 0.000000 -8.213958 3.017095 6.191660 -8.656862 50.474413 0.899071 0.488940 67.584336 0.087191 17.117810 -3.860474 -0.555660 -0.294369 -0.226726 0.000000 0.000000 0.000000 0.000000 0.000000 0.000000 0.000000 
5.545492 17.264815 -0.099749 -154.540978 89.696265 -132.323190 -4.373688 -1.551335 -3.088047 -0.267343 -1.183022 -4.207810 0.498619 -1.270216 -3.529747 2.325454 -4.913220 -8.966523 0.384437 0.069635 -0.548257 0.000000 0.000000 0.000000 7.933274 3.372938 -2.544159 -4.013826 -75.489453 -62.535875 3.721536 -48.250433 -0.210774 14.003996 -6.681917 -0.940124 -0.074874 0.905233 -0.000000 0.000000 0.000000 0.000000 0.000000 0.000000 0.000000 -7.691174 2.582558 6.182644 -11.060452 51.215406 -2.170386 0.505836 66.313158 0.089140 16.799935 -3.590140 -0.502207 -0.291778 -0.242588 0.000000 0.000000 0.000000 0.000000 0.000000 0.000000 0.000000 
5.804719 17.135454 -0.112347 -146.741891 89.567859 -124.615454 -4.185594 -1.760595 -3.103587 -0.267010 -1.410359 -4.226657 0.262237 -1.494458 -3.597555 2.783060 -5.230169 -8.949958 0.386718 0.069762 -0.543904 0.000000 0.000000 0.000000 8.064744 2.762086 -2.463529 -5.142975 -73.668666 -59.329337 3.627854 -48.756490 -0.230634 15.779697 -6.191033 -0.993392 -0.128266 0.896922 -0.000000 0.000000 0.000000 0.000000 0.000000 0.000000 0.000000 -7.280923 2.156547 6.097510 -13.283014 52.012211 -5.446032 0.514369 64.821107 0.090864 16.449551 -3.411570 -0.463257 -0.289854 -0.256931 0.000000 0.000000 0.000000 0.000000 0.000000 0.000000 0.000000 
6.062356 16.997927 -0.125559 -138.842803 89.421323 -116.824429 -3.929244 -1.966247 -3.128132 -0.253312 -1.638712 -4.235453 0.019314 -1.720668 -3.617819 3.188358 -5.536627 -8.952495 0.414413 0.072342 -0.544790 0.000000 0.000000 0.000000 8.268197 2.165047 -2.274326 -5.451066 -71.711373 -56.499326 3.501346 -49.071875 -0.252072 17.699317 -5.780763 -1.052353 -0.187025 0.889015 -0.000000 0.000000 0.000000 0.000000 0.000000 0.000000 0.000000 -7.047439 1.765846 5.943397 -15.234842 52.856920 -8.905429 0.512827 63.140234 0.092210 16.053958 -3.328013 -0.438313 -0.288105 -0.269513 0.000000 0.000000 0.000000 0.000000 0.000000 0.000000 0.000000 
6.318197 16.855280 -0.139386 -130.894544 89.264954 -109.018756 -3.614706 -2.163039 -3.139179 -0.224475 -1.861521 -4.233532 -0.214779 -1.941564 -3.607364 3.522070 -5.816504 -8.969033 0.468112 0.077306 -0.549395 0.000000 0.000000 0.000000 8.536654 1.582009 -1.998246 -5.280811 -69.658026 -53.699962 3.352554 -49.159039 -0.272282 19.583938 -5.377702 -1.096098 -0.246296 0.879159 -0.000000 0.000000 0.000000 0.000000 0.000000 0.000000 0.000000 -7.014612 1.434670 5.722061 -16.847435 53.745033 -12.529670 0.496543 61.309405 0.093013 15.584769 -3.320614 -0.422877 -0.286100 -0.280706 0.000000 0.000000 0.000000 0.000000 0.000000 0.000000 0.000000 
6.572054 16.711765 -0.152924 -123.003830 89.115523 -101.314754 -3.270718 -2.346954 -3.123098 -0.185079 -2.072551 -4.220702 -0.433706 -2.150735 -3.577628 3.781152 -6.051531 -8.993012 0.544009 0.084202 -0.555787 0.000000 0.000000 0.000000 8.859339 1.006607 -1.644512 -4.803525 -67.552645 -50.745903 3.184733 -48.991941 -0.288631 21.262954 -4.913167 -1.102320 -0.302312 0.865197 -0.000000 0.000000 0.000000 0.000000 0.000000 0.000000 0.000000 -7.166958 1.182817 5.433968 -18.067595 54.677096 -16.293090 0.459212 59.374889 0.093083 15.007680 -3.349778 -0.409651 -0.283405 -0.291354 0.000000 0.000000 0.000000 0.000000 0.000000 0.000000 0.000000 
6.823884 16.572233 -0.164928 -114.351606 88.959735 -92.894748 -2.903292 -2.511897 -3.074414 -0.137599 -2.265325 -4.198246 -0.639409 -2.341354 -3.537913 3.972778 -6.223714 -9.015652 0.634644 0.092203 -0.561234 0.000000 0.000000 0.000000 9.222759 0.430370 -1.218928 -4.122448 -65.446194 -47.527086 2.996944 -48.559692 -0.298838 22.575831 -4.333810 -1.051616 -0.352067 0.845378 -0.000000 0.000000 0.000000 0.000000 0.000000 0.000000 0.000000 -7.462266 1.026190 5.078957 -18.867127 55.657607 -20.164248 0.393751 57.387732 0.092171 14.287104 -3.358219 -0.389638 -0.279553 -0.302620 0.000000 0.000000 0.000000 0.000000 0.000000 0.000000 0.000000 
